<?xml version="1.0" encoding="UTF-8" standalone="no"?>
<svg
   xmlns:dc="http://purl.org/dc/elements/1.1/"
   xmlns:cc="http://creativecommons.org/ns#"
   xmlns:rdf="http://www.w3.org/1999/02/22-rdf-syntax-ns#"
   xmlns:svg="http://www.w3.org/2000/svg"
   xmlns="http://www.w3.org/2000/svg"
   xmlns:sodipodi="http://sodipodi.sourceforge.net/DTD/sodipodi-0.dtd"
   xmlns:inkscape="http://www.inkscape.org/namespaces/inkscape"
   role="img"
   viewBox="0 0 24 24"
   version="1.1"
   id="svg866"
   sodipodi:docname="storybook.svg"
   inkscape:version="0.92.3 (2405546, 2018-03-11)">
  <metadata
     id="metadata872">
    <rdf:RDF>
      <cc:Work
         rdf:about="">
        <dc:format>image/svg+xml</dc:format>
        <dc:type
           rdf:resource="http://purl.org/dc/dcmitype/StillImage" />
      </cc:Work>
    </rdf:RDF>
  </metadata>
  <defs
     id="defs870" />
  <sodipodi:namedview
     pagecolor="#ffffff"
     bordercolor="#666666"
     borderopacity="1"
     objecttolerance="10"
     gridtolerance="10"
     guidetolerance="10"
     inkscape:pageopacity="0"
     inkscape:pageshadow="2"
     inkscape:window-width="1920"
     inkscape:window-height="1017"
     id="namedview868"
     showgrid="false"
     inkscape:zoom="34.75"
     inkscape:cx="12"
     inkscape:cy="12"
     inkscape:window-x="0"
     inkscape:window-y="30"
     inkscape:window-maximized="1"
     inkscape:current-layer="svg866" />
  <title
     id="title862">Storybook icon</title>
  <path
     d="M16.34.24l-.12 2.71a.18.18 0 0 0 .29.15l1.06-.8.9.7a.18.18 0 0 0 .28-.14L18.65.1l1.33-.1a1.2 1.2 0 0 1 1.28 1.2v21.6A1.2 1.2 0 0 1 20 24l-16.1-.72a1.2 1.2 0 0 1-1.15-1.16L2 2.32a1.2 1.2 0 0 1 1.13-1.27l13.2-.83.01.02zM13.27 9.3c0 .47 3.16.24 3.59-.08 0-3.2-1.72-4.89-4.86-4.89-3.15 0-4.9 1.72-4.9 4.29 0 4.45 6 4.53 6 6.96 0 .7-.32 1.1-1.05 1.1-.96 0-1.35-.49-1.3-2.16 0-.36-3.65-.48-3.77 0-.27 4.03 2.23 5.2 5.1 5.2 2.79 0 4.97-1.49 4.97-4.18 0-4.77-6.1-4.64-6.1-7 0-.97.72-1.1 1.13-1.1.45 0 1.25.07 1.19 1.87z"
     id="path864"
     style="fill:#ff4785;fill-opacity:1" />
</svg>
