<?xml version="1.0" encoding="UTF-8" standalone="no"?>
<svg
   xmlns:dc="http://purl.org/dc/elements/1.1/"
   xmlns:cc="http://creativecommons.org/ns#"
   xmlns:rdf="http://www.w3.org/1999/02/22-rdf-syntax-ns#"
   xmlns:svg="http://www.w3.org/2000/svg"
   xmlns="http://www.w3.org/2000/svg"
   xmlns:sodipodi="http://sodipodi.sourceforge.net/DTD/sodipodi-0.dtd"
   xmlns:inkscape="http://www.inkscape.org/namespaces/inkscape"
   role="img"
   viewBox="0 0 24 24"
   version="1.1"
   id="svg1569"
   sodipodi:docname="webpack.svg"
   inkscape:version="0.92.3 (2405546, 2018-03-11)">
  <metadata
     id="metadata1575">
    <rdf:RDF>
      <cc:Work
         rdf:about="">
        <dc:format>image/svg+xml</dc:format>
        <dc:type
           rdf:resource="http://purl.org/dc/dcmitype/StillImage" />
      </cc:Work>
    </rdf:RDF>
  </metadata>
  <defs
     id="defs1573" />
  <sodipodi:namedview
     pagecolor="#ffffff"
     bordercolor="#666666"
     borderopacity="1"
     objecttolerance="10"
     gridtolerance="10"
     guidetolerance="10"
     inkscape:pageopacity="0"
     inkscape:pageshadow="2"
     inkscape:window-width="1920"
     inkscape:window-height="1017"
     id="namedview1571"
     showgrid="false"
     inkscape:zoom="9.8333333"
     inkscape:cx="-4.1186441"
     inkscape:cy="12"
     inkscape:window-x="0"
     inkscape:window-y="30"
     inkscape:window-maximized="1"
     inkscape:current-layer="svg1569" />
  <title
     id="title1565">Webpack icon</title>
  <path
     d="M21.0157 18.1202L12.351 23v-3.8007l5.3986-2.9567 3.266 1.8776zm.5927-.5344V7.3805l-3.1708 1.822v6.5593l3.1708 1.824zm-18.6827.5344L11.5904 23v-3.8007l-5.3986-2.9567-3.266 1.8776zm-.5927-.5344V7.3805l3.1707 1.822v6.5593l-3.1707 1.824zm.371-10.8656l8.8864-5.0056v3.6748L5.8974 8.507l-.0434.0248-3.15-1.8116zm18.5335 0L12.351 1.7146v3.6748l5.693 3.1177.0434.0248 3.15-1.8116zm-9.647 11.6146l-5.3262-2.9155V9.642l5.326 3.062v5.6308zm.7605 0l5.326-2.9155V9.642l-5.326 3.062v5.6308zM6.625 8.9734l5.3467-2.928 5.3468 2.928-5.3468 3.0744L6.625 8.9734z"
     id="path1567"
     style="fill:#8dd6f9;fill-opacity:1" />
</svg>
